<svg version="1.1" id="Layer_1" xmlns="http://www.w3.org/2000/svg" xmlns:xlink="http://www.w3.org/1999/xlink" x="0px" y="0px"
	 width="100%" viewBox="0 0 1080 1082" enable-background="new 0 0 1080 1082" xml:space="preserve">
<path fill="#6C150E" opacity="1.000000" stroke="none" 
	d="
M503.000000,1083.000000 
	C335.352600,1083.000000 168.205231,1083.000000 1.028920,1083.000000 
	C1.028920,722.394226 1.028920,361.788422 1.028920,1.091317 
	C360.897552,1.091317 720.795166,1.091317 1080.846436,1.091317 
	C1080.846436,361.666626 1080.846436,722.333313 1080.846436,1083.000000 
	C888.454651,1083.000000 695.977356,1083.000000 503.000000,1083.000000 
M325.067749,488.799591 
	C323.887970,488.590485 322.708191,488.381348 321.528381,488.172241 
	C321.425720,488.601532 321.323059,489.030823 321.220367,489.460114 
	C322.823334,489.916290 324.426300,490.372437 326.739288,491.143860 
	C330.849426,491.294708 334.959564,491.445526 339.934418,491.604492 
	C341.832886,491.169647 343.731323,490.734833 345.629791,490.299988 
	C345.524628,489.793304 345.419464,489.286621 345.314301,488.779938 
	C343.188385,489.142365 341.062439,489.504822 338.065094,489.809509 
	C334.038544,489.560547 330.011993,489.311554 325.067749,488.799591 
M350.492249,368.441895 
	C361.118134,374.481598 366.697784,383.833191 368.689941,395.727173 
	C368.689941,385.617859 368.689941,375.508545 368.689941,364.702301 
	C364.841095,371.775818 364.446869,371.915344 357.277771,369.179077 
	C355.270691,368.412994 353.278778,367.607147 350.842255,366.265778 
	C346.230927,365.301727 341.619629,364.337677 336.167999,363.068512 
	C332.349457,363.074890 328.336853,362.314636 324.746826,363.223602 
	C310.999847,366.704224 301.104370,374.807098 298.098450,389.181641 
	C295.195953,403.061646 300.775116,413.947754 311.954315,422.047546 
	C324.750366,431.318878 337.705933,440.370880 350.626953,449.468811 
	C365.194489,459.726044 364.055847,478.494232 348.329132,486.853638 
	C347.013153,487.553192 345.730774,488.316010 344.285187,489.132782 
	C345.061676,489.903168 345.291840,490.313965 345.493073,490.300293 
	C346.460999,490.234406 347.474243,490.206268 348.375977,489.891357 
	C361.531616,485.297485 371.141876,476.924347 373.524933,462.804657 
	C375.854553,449.001862 369.837616,438.309814 358.565979,430.275879 
	C345.158875,420.719879 331.726105,411.184113 318.640381,401.199280 
	C311.588348,395.818390 309.919067,388.057281 312.267639,379.642487 
	C314.458160,371.794037 319.708496,366.794891 327.676605,364.949127 
	C330.721924,364.243713 333.891022,364.072601 337.620056,364.096802 
	C341.749725,365.392670 345.879395,366.688538 350.492249,368.441895 
M497.534821,452.312256 
	C500.846863,460.663818 504.140198,469.022827 507.476685,477.364624 
	C510.351227,484.551514 510.329559,484.709412 504.175995,488.779755 
	C516.763916,488.779755 528.959595,488.779755 541.155212,488.779755 
	C535.321594,486.657379 531.627258,483.032440 529.370544,477.289124 
	C516.654724,444.927612 503.736267,412.645752 490.861847,380.346680 
	C488.441345,374.274200 485.907623,368.246918 483.426147,362.198761 
	C478.860870,370.559021 475.495239,378.828766 472.309387,387.167206 
	C471.965363,388.067596 472.489868,389.435181 472.903046,390.469513 
	C480.554077,409.622864 488.249420,428.758545 495.575653,448.900879 
	C493.829834,449.207825 492.085602,449.769775 490.337952,449.780762 
	C478.014740,449.858154 465.685242,450.036407 453.370056,449.712860 
	C448.703522,449.590271 446.205902,450.838409 444.654755,455.473602 
	C442.074951,463.182617 438.721863,470.631348 435.744354,478.209290 
	C433.929993,482.826996 431.040680,486.175629 425.926453,487.189880 
	C425.281799,487.317719 424.739960,487.964172 423.496948,488.820648 
	C430.033173,488.820648 435.711243,488.820648 442.417999,488.820648 
	C435.536194,484.880554 435.514648,484.872040 438.154083,478.199829 
	C441.090607,470.776611 444.261963,463.438965 446.944336,455.925964 
	C448.099365,452.690765 449.736725,451.667908 453.102905,451.704712 
	C467.755859,451.864960 482.411865,451.748016 497.534821,452.312256 
M657.719116,451.950531 
	C661.349426,460.696106 665.013123,469.428040 668.598938,478.191803 
	C671.183044,484.507507 670.970398,485.047455 664.758301,488.733887 
	C677.467773,488.733887 689.577148,488.733887 701.686523,488.733887 
	C694.259155,486.727539 691.576172,480.996948 689.105957,474.746735 
	C674.980286,439.005188 660.716248,403.318268 646.478271,367.621185 
	C645.739807,365.769745 644.809998,363.994690 643.412476,360.984985 
	C639.652466,370.386017 636.372742,378.358856 633.336060,386.423248 
	C632.878357,387.638580 633.238464,389.407257 633.755432,390.707214 
	C641.374023,409.867218 649.083313,428.991211 656.319336,449.037231 
	C654.554504,449.298798 652.790771,449.778168 651.024658,449.787140 
	C638.213196,449.852264 625.399719,449.932434 612.590576,449.749817 
	C609.153870,449.700836 607.250854,450.512207 605.990479,454.016632 
	C602.956665,462.451874 599.856262,470.925751 595.858032,478.921631 
	C594.198792,482.240021 590.200928,484.402679 587.216248,487.033783 
	C586.586121,487.589264 585.736023,487.895203 583.945312,488.901978 
	C590.795105,488.901978 596.393433,488.901978 602.718750,488.901978 
	C596.277832,484.501984 596.290771,484.507172 599.156982,477.382904 
	C601.947083,470.447693 604.921265,463.575500 607.393982,456.528076 
	C608.721130,452.745514 610.752014,451.628296 614.696472,451.676941 
	C628.829407,451.851318 642.967468,451.606689 657.719116,451.950531 
M634.986084,614.774292 
	C635.150574,615.007996 635.315002,615.241638 635.403809,616.187988 
	C634.471863,617.729614 633.522278,619.260986 632.611328,620.815002 
	C630.389648,624.604614 631.066162,627.935059 634.341125,629.787842 
	C637.758606,625.581909 641.143433,621.416199 644.539673,617.236328 
	C650.344116,612.337341 656.343933,607.273376 662.343811,602.209351 
	C662.690430,602.595642 663.037048,602.981934 663.383667,603.368225 
	C660.889221,610.798401 657.405518,618.600464 665.741821,624.426758 
	C669.351135,626.949341 673.954224,628.562988 679.469849,624.572998 
	C676.887817,623.856262 675.423584,623.224609 673.910889,623.071533 
	C669.052124,622.579529 666.468201,620.258972 666.887939,615.381470 
	C667.266296,610.983765 668.620789,606.672119 669.509155,602.315308 
	C670.096191,599.436279 670.620544,596.544373 671.268555,593.158936 
	C659.220520,595.512512 653.736328,605.531494 644.174072,611.283569 
	C647.014954,600.973633 647.014954,600.973633 643.567261,598.217590 
	C642.387207,599.655151 640.327087,601.016113 640.158569,602.580933 
	C639.606384,607.705566 635.734985,608.674011 632.050842,610.070129 
	C628.550293,611.396729 624.346252,611.880005 621.676086,614.165039 
	C616.741699,618.387573 610.462463,618.307800 604.999939,620.659790 
	C602.011169,621.946594 598.013367,620.889771 594.470520,620.889771 
	C597.963135,616.851990 601.294006,613.125183 605.456177,611.374207 
	C612.705933,608.324280 617.660156,603.424011 620.373230,596.387085 
	C621.267273,594.068298 620.953186,590.767212 619.960876,588.440063 
	C619.406494,587.139709 616.089417,585.961426 614.425537,586.374207 
	C607.538696,588.082764 600.640442,590.799438 596.378418,596.549316 
	C590.974426,603.839722 584.081238,601.683044 577.041931,601.910156 
	C577.397949,599.248657 578.016968,597.127197 577.845520,595.071655 
	C577.719055,593.556396 576.560425,592.127319 575.861633,590.659912 
	C574.606323,592.088196 572.273193,593.512207 572.267395,594.945557 
	C572.223694,605.783630 566.372009,613.465698 558.893616,620.145081 
	C556.454407,622.323730 553.006592,623.373169 550.020020,624.939026 
	C549.505676,624.576233 548.991333,624.213501 548.476990,623.850769 
	C549.673340,618.300842 550.472107,612.623901 552.192322,607.241394 
	C553.557922,602.968201 556.198914,599.117004 557.943604,594.940552 
	C558.397461,593.854126 557.616821,592.251892 557.403259,590.886597 
	C556.031860,591.120605 554.497803,591.037231 553.316833,591.642700 
	C547.718201,594.513489 547.063904,600.126770 545.933716,605.465027 
	C544.850952,610.579285 544.154541,615.845764 542.391235,620.720947 
	C541.200806,624.012329 530.211304,625.434387 526.444702,623.399719 
	C522.130981,621.069519 520.304382,614.225647 523.071838,609.451599 
	C526.690979,603.208252 523.499268,591.639343 520.245056,587.191650 
	C519.628235,586.348633 516.815857,585.972473 515.975098,586.621887 
	C511.293091,590.238342 506.408875,593.801697 502.545593,598.216125 
	C497.796021,603.643188 493.067047,608.534119 485.793182,610.437622 
	C482.519073,611.294434 479.082031,612.472534 476.395813,614.432556 
	C471.069489,618.318970 464.692017,619.005859 458.773285,620.953430 
	C456.128937,621.823547 452.849701,620.764404 449.858612,620.580811 
	C453.487671,616.695129 456.954346,613.223206 461.134460,611.310364 
	C468.398132,607.986511 473.389862,602.857117 476.014038,595.562256 
	C477.996552,590.051147 474.379974,584.818848 469.775391,586.308533 
	C465.046112,587.838440 460.515839,590.163818 456.151855,592.595764 
	C450.971069,595.482971 449.046722,600.727417 446.562469,605.882874 
	C444.290619,610.597473 442.373108,614.865723 443.696198,621.519104 
	C438.656921,623.414062 433.462646,625.615112 428.102600,627.283875 
	C425.195038,628.189148 423.447479,626.225037 424.023132,623.383789 
	C425.125885,617.940796 426.786163,612.612915 428.006439,607.190369 
	C428.431854,605.299927 428.241455,603.270874 428.332275,601.305115 
	C426.123535,601.448547 423.700195,601.061035 421.751801,601.848572 
	C417.976746,603.374451 414.468964,605.561584 410.718689,607.544312 
	C409.814728,602.230896 410.330322,601.338196 414.447601,600.221985 
	C416.673065,599.618713 419.037598,599.256470 421.062744,598.236267 
	C427.550934,594.967773 434.053894,591.550110 437.828400,584.912598 
	C442.356079,576.950623 444.144562,568.197388 443.600342,559.172852 
	C443.116089,551.142212 441.225220,548.251099 434.506287,550.184509 
	C432.164642,550.858276 429.373505,552.842102 428.421417,554.961487 
	C424.842560,562.928406 418.712524,569.290649 416.029297,578.016541 
	C413.069214,587.642578 407.410400,596.427734 403.070709,605.646790 
	C401.697937,608.563171 400.987213,611.790771 399.618195,614.709290 
	C397.450897,619.329773 394.861115,623.751770 392.684235,628.368042 
	C391.012970,631.912170 391.656158,634.473450 396.074707,634.659302 
	C401.917755,624.237244 409.602997,615.662476 418.402588,608.037231 
	C419.009827,607.511047 420.693848,607.153015 420.885498,607.422363 
	C421.469574,608.243164 421.984833,609.500061 421.783783,610.425842 
	C420.885071,614.564392 419.678406,618.634766 418.676300,622.752502 
	C417.176910,628.913757 419.794250,631.944580 426.229187,632.105469 
	C434.174622,632.304077 439.957397,628.009949 445.136566,623.556946 
	C447.257263,625.146179 449.215607,627.847107 451.088013,627.788879 
	C457.019806,627.604126 462.711945,628.438171 468.581512,623.878235 
	C475.391296,618.587952 484.444855,616.185852 493.210907,612.219421 
	C492.926422,613.670898 492.808472,614.263916 492.694092,614.857605 
	C492.148590,617.689941 490.679413,620.729187 491.256500,623.310852 
	C492.371063,628.297058 501.615509,630.924072 505.941681,627.857056 
	C509.762421,625.148315 513.420959,622.210815 517.848389,618.844177 
	C518.564758,625.402527 523.160706,629.041748 528.372375,629.496704 
	C533.118286,629.911072 538.128235,627.301270 543.453003,625.911987 
	C544.303406,628.449158 546.006287,632.724243 550.471558,631.026978 
	C555.905151,628.961731 561.522705,626.254456 565.714355,622.371521 
	C569.731628,618.650146 572.025330,613.068237 575.242920,608.044250 
	C579.482056,607.832886 584.223999,607.596375 589.713562,607.322632 
	C589.050598,609.697815 588.538147,611.705322 587.929016,613.682983 
	C586.195251,619.312256 592.267029,627.952209 598.035156,627.944031 
	C603.867615,627.935730 609.036621,627.368896 614.326904,623.363098 
	C620.094421,618.996033 627.702148,617.059204 634.986084,614.774292 
M785.499146,532.271729 
	C800.788879,532.271729 816.078674,532.271729 831.926453,532.271729 
	C831.926453,535.439636 831.402954,538.222961 832.100830,540.655945 
	C832.610657,542.433228 834.728210,543.749329 836.129150,545.270996 
	C837.608643,543.799744 840.290649,542.388672 840.367737,540.847229 
	C840.791748,532.370544 840.645447,523.861267 840.546875,515.364868 
	C840.513428,512.486572 838.864075,510.143707 835.918335,510.939301 
	C834.289917,511.379089 832.583252,513.767639 832.084229,515.597473 
	C831.427185,518.006592 831.922852,520.730103 831.922852,523.319214 
	C637.805847,523.319214 444.465210,523.319214 250.678070,523.319214 
	C250.678070,520.626526 250.715729,518.317566 250.668747,516.010376 
	C250.607300,512.993469 249.529648,510.655823 246.068314,510.765137 
	C242.906189,510.865021 241.929489,513.013000 241.940475,515.890869 
	C241.971039,523.888855 241.980209,531.887207 241.934509,539.885071 
	C241.916885,542.972107 242.905609,545.292969 246.351364,545.230042 
	C249.806305,545.166931 250.622025,542.657043 250.693634,539.694885 
	C250.751755,537.291504 250.913132,534.890625 251.024185,532.582642 
	C252.138458,532.434387 252.631851,532.311218 253.125259,532.311157 
	C430.249878,532.292480 607.374451,532.282166 785.499146,532.271729 
M779.928101,374.073883 
	C782.033508,371.116333 784.138916,368.158783 786.127441,365.365417 
	C775.611328,365.365417 763.958191,365.365417 752.305054,365.365417 
	C759.817322,367.486969 759.626465,373.286072 759.617981,379.135315 
	C759.573059,410.126892 759.641479,441.118683 759.552551,472.110077 
	C759.537720,477.259888 759.518738,482.528534 758.477661,487.529083 
	C756.876099,495.222076 757.017456,504.755585 744.830994,504.810486 
	C745.656128,505.500885 746.193237,505.795044 746.756470,505.858887 
	C764.193787,507.835327 779.831787,494.060669 779.880493,476.447205 
	C779.973999,442.623260 779.913208,408.798859 779.928101,374.073883 
M298.266174,487.112701 
	C298.853180,481.826752 302.113922,481.529785 306.157959,482.997528 
	C308.876404,483.984192 311.513062,485.196167 314.186279,486.307343 
	C305.285706,478.368195 298.400513,469.572083 298.023834,456.825165 
	C297.499725,457.004333 296.975647,457.183502 296.451538,457.362671 
	C296.451538,467.565002 296.451538,477.767365 296.451538,487.969666 
	C296.998230,487.902191 297.544922,487.834747 298.266174,487.112701 
M321.497742,488.507782 
	C319.970459,487.685883 318.443176,486.863983 316.915894,486.042114 
	C316.698395,486.526825 316.480896,487.011536 316.263397,487.496246 
	C317.737030,488.024536 319.210632,488.552826 321.497742,488.507782 
M315.495758,485.968140 
	C315.421478,486.194763 315.347168,486.421387 315.272919,486.648041 
	C315.501740,486.570648 315.730560,486.493286 315.495758,485.968140 
z"/>
<path fill="#F5DC7B" opacity="1.000000" stroke="none" 
	d="
M784.999146,532.271729 
	C607.374451,532.282166 430.249878,532.292480 253.125259,532.311157 
	C252.631851,532.311218 252.138458,532.434387 251.024185,532.582642 
	C250.913132,534.890625 250.751755,537.291504 250.693634,539.694885 
	C250.622025,542.657043 249.806305,545.166931 246.351364,545.230042 
	C242.905609,545.292969 241.916885,542.972107 241.934509,539.885071 
	C241.980209,531.887207 241.971039,523.888855 241.940475,515.890869 
	C241.929489,513.013000 242.906189,510.865021 246.068314,510.765137 
	C249.529648,510.655823 250.607300,512.993469 250.668747,516.010376 
	C250.715729,518.317566 250.678070,520.626526 250.678070,523.319214 
	C444.465210,523.319214 637.805847,523.319214 831.922852,523.319214 
	C831.922852,520.730103 831.427185,518.006592 832.084229,515.597473 
	C832.583252,513.767639 834.289917,511.379089 835.918335,510.939301 
	C838.864075,510.143707 840.513428,512.486572 840.546875,515.364868 
	C840.645447,523.861267 840.791748,532.370544 840.367737,540.847229 
	C840.290649,542.388672 837.608643,543.799744 836.129150,545.270996 
	C834.728210,543.749329 832.610657,542.433228 832.100830,540.655945 
	C831.402954,538.222961 831.926453,535.439636 831.926453,532.271729 
	C816.078674,532.271729 800.788879,532.271729 784.999146,532.271729 
z"/>
<path fill="#F0D476" opacity="1.000000" stroke="none" 
	d="
M634.507690,614.062988 
	C627.702148,617.059204 620.094421,618.996033 614.326904,623.363098 
	C609.036621,627.368896 603.867615,627.935730 598.035156,627.944031 
	C592.267029,627.952209 586.195251,619.312256 587.929016,613.682983 
	C588.538147,611.705322 589.050598,609.697815 589.713562,607.322632 
	C584.223999,607.596375 579.482056,607.832886 575.242920,608.044250 
	C572.025330,613.068237 569.731628,618.650146 565.714355,622.371521 
	C561.522705,626.254456 555.905151,628.961731 550.471558,631.026978 
	C546.006287,632.724243 544.303406,628.449158 543.453003,625.911987 
	C538.128235,627.301270 533.118286,629.911072 528.372375,629.496704 
	C523.160706,629.041748 518.564758,625.402527 517.848389,618.844177 
	C513.420959,622.210815 509.762421,625.148315 505.941681,627.857056 
	C501.615509,630.924072 492.371063,628.297058 491.256500,623.310852 
	C490.679413,620.729187 492.148590,617.689941 492.694092,614.857605 
	C492.808472,614.263916 492.926422,613.670898 493.210907,612.219421 
	C484.444855,616.185852 475.391296,618.587952 468.581512,623.878235 
	C462.711945,628.438171 457.019806,627.604126 451.088013,627.788879 
	C449.215607,627.847107 447.257263,625.146179 445.136566,623.556946 
	C439.957397,628.009949 434.174622,632.304077 426.229187,632.105469 
	C419.794250,631.944580 417.176910,628.913757 418.676300,622.752502 
	C419.678406,618.634766 420.885071,614.564392 421.783783,610.425842 
	C421.984833,609.500061 421.469574,608.243164 420.885498,607.422363 
	C420.693848,607.153015 419.009827,607.511047 418.402588,608.037231 
	C409.602997,615.662476 401.917755,624.237244 396.074707,634.659302 
	C391.656158,634.473450 391.012970,631.912170 392.684235,628.368042 
	C394.861115,623.751770 397.450897,619.329773 399.618195,614.709290 
	C400.987213,611.790771 401.697937,608.563171 403.070709,605.646790 
	C407.410400,596.427734 413.069214,587.642578 416.029297,578.016541 
	C418.712524,569.290649 424.842560,562.928406 428.421417,554.961487 
	C429.373505,552.842102 432.164642,550.858276 434.506287,550.184509 
	C441.225220,548.251099 443.116089,551.142212 443.600342,559.172852 
	C444.144562,568.197388 442.356079,576.950623 437.828400,584.912598 
	C434.053894,591.550110 427.550934,594.967773 421.062744,598.236267 
	C419.037598,599.256470 416.673065,599.618713 414.447601,600.221985 
	C410.330322,601.338196 409.814728,602.230896 410.718689,607.544312 
	C414.468964,605.561584 417.976746,603.374451 421.751801,601.848572 
	C423.700195,601.061035 426.123535,601.448547 428.332275,601.305115 
	C428.241455,603.270874 428.431854,605.299927 428.006439,607.190369 
	C426.786163,612.612915 425.125885,617.940796 424.023132,623.383789 
	C423.447479,626.225037 425.195038,628.189148 428.102600,627.283875 
	C433.462646,625.615112 438.656921,623.414062 443.696198,621.519104 
	C442.373108,614.865723 444.290619,610.597473 446.562469,605.882874 
	C449.046722,600.727417 450.971069,595.482971 456.151855,592.595764 
	C460.515839,590.163818 465.046112,587.838440 469.775391,586.308533 
	C474.379974,584.818848 477.996552,590.051147 476.014038,595.562256 
	C473.389862,602.857117 468.398132,607.986511 461.134460,611.310364 
	C456.954346,613.223206 453.487671,616.695129 449.858612,620.580811 
	C452.849701,620.764404 456.128937,621.823547 458.773285,620.953430 
	C464.692017,619.005859 471.069489,618.318970 476.395813,614.432556 
	C479.082031,612.472534 482.519073,611.294434 485.793182,610.437622 
	C493.067047,608.534119 497.796021,603.643188 502.545593,598.216125 
	C506.408875,593.801697 511.293091,590.238342 515.975098,586.621887 
	C516.815857,585.972473 519.628235,586.348633 520.245056,587.191650 
	C523.499268,591.639343 526.690979,603.208252 523.071838,609.451599 
	C520.304382,614.225647 522.130981,621.069519 526.444702,623.399719 
	C530.211304,625.434387 541.200806,624.012329 542.391235,620.720947 
	C544.154541,615.845764 544.850952,610.579285 545.933716,605.465027 
	C547.063904,600.126770 547.718201,594.513489 553.316833,591.642700 
	C554.497803,591.037231 556.031860,591.120605 557.403259,590.886597 
	C557.616821,592.251892 558.397461,593.854126 557.943604,594.940552 
	C556.198914,599.117004 553.557922,602.968201 552.192322,607.241394 
	C550.472107,612.623901 549.673340,618.300842 548.476990,623.850769 
	C548.991333,624.213501 549.505676,624.576233 550.020020,624.939026 
	C553.006592,623.373169 556.454407,622.323730 558.893616,620.145081 
	C566.372009,613.465698 572.223694,605.783630 572.267395,594.945557 
	C572.273193,593.512207 574.606323,592.088196 575.861633,590.659912 
	C576.560425,592.127319 577.719055,593.556396 577.845520,595.071655 
	C578.016968,597.127197 577.397949,599.248657 577.041931,601.910156 
	C584.081238,601.683044 590.974426,603.839722 596.378418,596.549316 
	C600.640442,590.799438 607.538696,588.082764 614.425537,586.374207 
	C616.089417,585.961426 619.406494,587.139709 619.960876,588.440063 
	C620.953186,590.767212 621.267273,594.068298 620.373230,596.387085 
	C617.660156,603.424011 612.705933,608.324280 605.456177,611.374207 
	C601.294006,613.125183 597.963135,616.851990 594.470520,620.889771 
	C598.013367,620.889771 602.011169,621.946594 604.999939,620.659790 
	C610.462463,618.307800 616.741699,618.387573 621.676086,614.165039 
	C624.346252,611.880005 628.550293,611.396729 632.050842,610.070129 
	C635.734985,608.674011 639.606384,607.705566 640.158569,602.580933 
	C640.327087,601.016113 642.387207,599.655151 643.567261,598.217590 
	C647.014954,600.973633 647.014954,600.973633 644.174072,611.283569 
	C653.736328,605.531494 659.220520,595.512512 671.268555,593.158936 
	C670.620544,596.544373 670.096191,599.436279 669.509155,602.315308 
	C668.620789,606.672119 667.266296,610.983765 666.887939,615.381470 
	C666.468201,620.258972 669.052124,622.579529 673.910889,623.071533 
	C675.423584,623.224609 676.887817,623.856262 679.469849,624.572998 
	C673.954224,628.562988 669.351135,626.949341 665.741821,624.426758 
	C657.405518,618.600464 660.889221,610.798401 663.383667,603.368225 
	C663.037048,602.981934 662.690430,602.595642 662.343811,602.209351 
	C656.343933,607.273376 650.344116,612.337341 644.539673,617.236328 
	C641.143433,621.416199 637.758606,625.581909 634.341125,629.787842 
	C631.066162,627.935059 630.389648,624.604614 632.611328,620.815002 
	C633.522278,619.260986 634.471863,617.729614 635.595459,615.557922 
	C635.360657,614.639587 634.934143,614.351318 634.507690,614.062988 
M420.922394,592.544861 
	C438.739044,585.855469 438.490204,570.245728 439.889435,555.189514 
	C433.512054,555.215149 422.948761,572.514099 415.802765,594.060181 
	C417.507477,593.609375 418.873932,593.248047 420.922394,592.544861 
M502.070038,622.216553 
	C508.580475,621.634827 513.286377,617.398987 515.219299,612.148315 
	C517.383789,606.268677 517.031616,599.462524 517.897034,592.003845 
	C506.646667,597.393860 503.372742,609.145630 495.987213,617.119629 
	C496.913574,619.462463 497.749023,621.575317 498.671783,623.908997 
	C499.675537,623.455688 500.562378,623.055237 502.070038,622.216553 
M466.661743,601.080261 
	C467.886780,598.639832 469.111847,596.199402 470.422089,593.589233 
	C463.294495,592.330078 453.798981,601.495422 452.420013,611.114929 
	C457.410522,607.662537 461.783752,604.637146 466.661743,601.080261 
M612.683044,599.051086 
	C613.456421,597.262634 614.229797,595.474243 615.036743,593.608337 
	C608.120361,592.170532 597.470825,602.581604 597.648621,611.400940 
	C602.927795,607.177673 607.613037,603.429443 612.683044,599.051086 
z"/>
<path fill="#F4DB7A" opacity="1.000000" stroke="none" 
	d="
M779.922302,374.524292 
	C779.913208,408.798859 779.973999,442.623260 779.880493,476.447205 
	C779.831787,494.060669 764.193787,507.835327 746.756470,505.858887 
	C746.193237,505.795044 745.656128,505.500885 744.830994,504.810486 
	C757.017456,504.755585 756.876099,495.222076 758.477661,487.529083 
	C759.518738,482.528534 759.537720,477.259888 759.552551,472.110077 
	C759.641479,441.118683 759.573059,410.126892 759.617981,379.135315 
	C759.626465,373.286072 759.817322,367.486969 752.305054,365.365417 
	C763.958191,365.365417 775.611328,365.365417 786.127441,365.365417 
	C784.138916,368.158783 782.033508,371.116333 779.922302,374.524292 
z"/>
<path fill="#F4DA79" opacity="1.000000" stroke="none" 
	d="
M656.771118,448.123718 
	C649.083313,428.991211 641.374023,409.867218 633.755432,390.707214 
	C633.238464,389.407257 632.878357,387.638580 633.336060,386.423248 
	C636.372742,378.358856 639.652466,370.386017 643.412476,360.984985 
	C644.809998,363.994690 645.739807,365.769745 646.478271,367.621185 
	C660.716248,403.318268 674.980286,439.005188 689.105957,474.746735 
	C691.576172,480.996948 694.259155,486.727539 701.686523,488.733887 
	C689.577148,488.733887 677.467773,488.733887 664.758301,488.733887 
	C670.970398,485.047455 671.183044,484.507507 668.598938,478.191803 
	C665.013123,469.428040 661.349426,460.696106 657.425537,451.446045 
	C657.011658,450.002289 656.891418,449.063019 656.771118,448.123718 
z"/>
<path fill="#F4DA79" opacity="1.000000" stroke="none" 
	d="
M495.935486,447.897919 
	C488.249420,428.758545 480.554077,409.622864 472.903046,390.469513 
	C472.489868,389.435181 471.965363,388.067596 472.309387,387.167206 
	C475.495239,378.828766 478.860870,370.559021 483.426147,362.198761 
	C485.907623,368.246918 488.441345,374.274200 490.861847,380.346680 
	C503.736267,412.645752 516.654724,444.927612 529.370544,477.289124 
	C531.627258,483.032440 535.321594,486.657379 541.155212,488.779755 
	C528.959595,488.779755 516.763916,488.779755 504.175995,488.779755 
	C510.329559,484.709412 510.351227,484.551514 507.476685,477.364624 
	C504.140198,469.022827 500.846863,460.663818 497.292999,451.724152 
	C496.679291,450.056671 496.307404,448.977295 495.935486,447.897919 
z"/>
<path fill="#F3D979" opacity="1.000000" stroke="none" 
	d="
M337.003693,363.657990 
	C333.891022,364.072601 330.721924,364.243713 327.676605,364.949127 
	C319.708496,366.794891 314.458160,371.794037 312.267639,379.642487 
	C309.919067,388.057281 311.588348,395.818390 318.640381,401.199280 
	C331.726105,411.184113 345.158875,420.719879 358.565979,430.275879 
	C369.837616,438.309814 375.854553,449.001862 373.524933,462.804657 
	C371.141876,476.924347 361.531616,485.297485 348.375977,489.891357 
	C347.474243,490.206268 346.460999,490.234406 345.493073,490.300293 
	C345.291840,490.313965 345.061676,489.903168 344.285187,489.132782 
	C345.730774,488.316010 347.013153,487.553192 348.329132,486.853638 
	C364.055847,478.494232 365.194489,459.726044 350.626953,449.468811 
	C337.705933,440.370880 324.750366,431.318878 311.954315,422.047546 
	C300.775116,413.947754 295.195953,403.061646 298.098450,389.181641 
	C301.104370,374.807098 310.999847,366.704224 324.746826,363.223602 
	C328.336853,362.314636 332.349457,363.074890 336.549713,363.291565 
	C336.931427,363.514587 337.003693,363.657990 337.003693,363.657990 
z"/>
<path fill="#DBB666" opacity="1.000000" stroke="none" 
	d="
M495.755585,448.399414 
	C496.307404,448.977295 496.679291,450.056671 497.058960,451.433899 
	C482.411865,451.748016 467.755859,451.864960 453.102905,451.704712 
	C449.736725,451.667908 448.099365,452.690765 446.944336,455.925964 
	C444.261963,463.438965 441.090607,470.776611 438.154083,478.199829 
	C435.514648,484.872040 435.536194,484.880554 442.417999,488.820648 
	C435.711243,488.820648 430.033173,488.820648 423.496948,488.820648 
	C424.739960,487.964172 425.281799,487.317719 425.926453,487.189880 
	C431.040680,486.175629 433.929993,482.826996 435.744354,478.209290 
	C438.721863,470.631348 442.074951,463.182617 444.654755,455.473602 
	C446.205902,450.838409 448.703522,449.590271 453.370056,449.712860 
	C465.685242,450.036407 478.014740,449.858154 490.337952,449.780762 
	C492.085602,449.769775 493.829834,449.207825 495.755585,448.399414 
z"/>
<path fill="#DBB666" opacity="1.000000" stroke="none" 
	d="
M656.545227,448.580475 
	C656.891418,449.063019 657.011658,450.002289 657.117798,451.231079 
	C642.967468,451.606689 628.829407,451.851318 614.696472,451.676941 
	C610.752014,451.628296 608.721130,452.745514 607.393982,456.528076 
	C604.921265,463.575500 601.947083,470.447693 599.156982,477.382904 
	C596.290771,484.507172 596.277832,484.501984 602.718750,488.901978 
	C596.393433,488.901978 590.795105,488.901978 583.945312,488.901978 
	C585.736023,487.895203 586.586121,487.589264 587.216248,487.033783 
	C590.200928,484.402679 594.198792,482.240021 595.858032,478.921631 
	C599.856262,470.925751 602.956665,462.451874 605.990479,454.016632 
	C607.250854,450.512207 609.153870,449.700836 612.590576,449.749817 
	C625.399719,449.932434 638.213196,449.852264 651.024658,449.787140 
	C652.790771,449.778168 654.554504,449.298798 656.545227,448.580475 
z"/>
<path fill="#F0D476" opacity="1.000000" stroke="none" 
	d="
M351.279907,366.819550 
	C353.278778,367.607147 355.270691,368.412994 357.277771,369.179077 
	C364.446869,371.915344 364.841095,371.775818 368.689941,364.702301 
	C368.689941,375.508545 368.689941,385.617859 368.689941,395.727173 
	C366.697784,383.833191 361.118134,374.481598 350.448853,368.004700 
	C350.696960,367.318146 350.988434,367.068848 351.279907,366.819550 
z"/>
<path fill="#F0D476" opacity="1.000000" stroke="none" 
	d="
M298.178894,487.440002 
	C297.544922,487.834747 296.998230,487.902191 296.451538,487.969666 
	C296.451538,477.767365 296.451538,467.565002 296.451538,457.362671 
	C296.975647,457.183502 297.499725,457.004333 298.023834,456.825165 
	C298.400513,469.572083 305.285706,478.368195 314.186279,486.307343 
	C311.513062,485.196167 308.876404,483.984192 306.157959,482.997528 
	C302.113922,481.529785 298.853180,481.826752 298.178894,487.440002 
z"/>
<path fill="#DBB666" opacity="1.000000" stroke="none" 
	d="
M351.061096,366.542664 
	C350.988434,367.068848 350.696960,367.318146 350.207275,367.775940 
	C345.879395,366.688538 341.749725,365.392670 337.311890,363.877380 
	C337.003693,363.657990 336.931427,363.514587 336.969849,363.444092 
	C341.619629,364.337677 346.230927,365.301727 351.061096,366.542664 
z"/>
<path fill="#DBB666" opacity="1.000000" stroke="none" 
	d="
M339.069702,491.596344 
	C334.959564,491.445526 330.849426,491.294708 326.370972,490.692078 
	C325.996948,489.847687 325.991180,489.455139 325.985443,489.062561 
	C330.011993,489.311554 334.038544,489.560547 338.524475,490.126770 
	C339.012451,490.828125 339.041077,491.212219 339.069702,491.596344 
z"/>
<path fill="#F3D979" opacity="1.000000" stroke="none" 
	d="
M339.502045,491.600403 
	C339.041077,491.212219 339.012451,490.828125 338.960205,490.155640 
	C341.062439,489.504822 343.188385,489.142365 345.314301,488.779938 
	C345.419464,489.286621 345.524628,489.793304 345.629791,490.299988 
	C343.731323,490.734833 341.832886,491.169647 339.502045,491.600403 
z"/>
<path fill="#F0D476" opacity="1.000000" stroke="none" 
	d="
M321.091003,488.794434 
	C319.210632,488.552826 317.737030,488.024536 316.263397,487.496246 
	C316.480896,487.011536 316.698395,486.526825 316.915894,486.042114 
	C318.443176,486.863983 319.970459,487.685883 321.091003,488.794434 
z"/>
<path fill="#F0D476" opacity="1.000000" stroke="none" 
	d="
M325.526611,488.931091 
	C325.991180,489.455139 325.996948,489.847687 326.015991,490.534424 
	C324.426300,490.372437 322.823334,489.916290 321.220367,489.460114 
	C321.323059,489.030823 321.425720,488.601532 321.528381,488.172241 
	C322.708191,488.381348 323.887970,488.590485 325.526611,488.931091 
z"/>
<path fill="#F0D476" opacity="1.000000" stroke="none" 
	d="
M315.727539,486.192017 
	C315.730560,486.493286 315.501740,486.570648 315.272888,486.648010 
	C315.347168,486.421387 315.421478,486.194763 315.727539,486.192017 
z"/>
<path fill="#711C12" opacity="1.000000" stroke="none" 
	d="
M420.581390,592.715820 
	C418.873932,593.248047 417.507477,593.609375 415.802765,594.060181 
	C422.948761,572.514099 433.512054,555.215149 439.889435,555.189514 
	C438.490204,570.245728 438.739044,585.855469 420.581390,592.715820 
z"/>
<path fill="#711C12" opacity="1.000000" stroke="none" 
	d="
M501.759613,622.435669 
	C500.562378,623.055237 499.675537,623.455688 498.671783,623.908997 
	C497.749023,621.575317 496.913574,619.462463 495.987213,617.119629 
	C503.372742,609.145630 506.646667,597.393860 517.897034,592.003845 
	C517.031616,599.462524 517.383789,606.268677 515.219299,612.148315 
	C513.286377,617.398987 508.580475,621.634827 501.759613,622.435669 
z"/>
<path fill="#711C12" opacity="1.000000" stroke="none" 
	d="
M466.409363,601.346069 
	C461.783752,604.637146 457.410522,607.662537 452.420013,611.114929 
	C453.798981,601.495422 463.294495,592.330078 470.422089,593.589233 
	C469.111847,596.199402 467.886780,598.639832 466.409363,601.346069 
z"/>
<path fill="#711C12" opacity="1.000000" stroke="none" 
	d="
M612.490723,599.366211 
	C607.613037,603.429443 602.927795,607.177673 597.648621,611.400940 
	C597.470825,602.581604 608.120361,592.170532 615.036743,593.608337 
	C614.229797,595.474243 613.456421,597.262634 612.490723,599.366211 
z"/>
<path fill="#6C150E" opacity="1.000000" stroke="none" 
	d="
M634.746887,614.418640 
	C634.934143,614.351318 635.360657,614.639587 635.633301,615.201599 
	C635.315002,615.241638 635.150574,615.007996 634.746887,614.418640 
z"/>
</svg>